<svg id="Layer_1" enable-background="new 0 0 510.004 510.004" height="512" viewBox="0 0 510.004 510.004" width="512" xmlns="http://www.w3.org/2000/svg"><g><path d="m345.002 420.004h30v30h-30z"/><path d="m420.002 420.004h30v30h-30z"/><path d="m497.489 105.212c-65.533-11.34-186.099 13.594-249.669 104.155-37.896-24.287-81.438-37.121-127.818-39.999v-38.023c31.738-16.01 38.503-74.693 19.236-108.407-17.461-30.56-50.982-30.61-68.473 0-19.235 33.66-12.45 92.425 19.237 108.408v37.533c-45.476 1.296-77.813 11.285-79.503 11.817l-10.497 3.303v326.005h510c0-10.909 0-391.992 0-402.689zm-392.487-75.208c4.354 0 15 13.141 15 37.5s-10.646 37.5-15 37.5-15-13.141-15-37.5 10.647-37.5 15-37.5zm-75 450v-195h75v-30h-75v-48.408c85.276-21.331 198.604-1.808 256.407 78.408h-53.616l-67.791 84.738v110.262zm277.209-120-36-45h156.582l36 45zm-112.209 120v-99.738l45-56.25 45 56.25v99.738h-30v-60h-30v60c-10.492 0-19.508 0-30 0zm285 0h-165v-90h165zm-37.791-195h-118.981c-14.725-22.422-31.85-41.773-51.203-57.899 45.489-65.299 133.995-99.77 207.976-93.545v198.683z"/><path d="m135.002 255.004h30v30h-30z"/></g></svg>