<svg width="23" height="23" viewBox="0 0 23 23" fill="none" xmlns="http://www.w3.org/2000/svg">
<path d="M17.6318 2.7798H6.71582C6.25685 2.7798 5.88477 2.40771 5.88477 1.94875C5.88477 1.48978 6.25685 1.11769 6.71582 1.11769H17.6318C18.0908 1.11769 18.4629 1.48978 18.4629 1.94875C18.4629 2.40776 18.0908 2.7798 17.6318 2.7798Z" fill="#EFE7E4"/>
<path d="M17.6318 1.11769H16.2842C16.7431 1.11769 17.1152 1.48978 17.1152 1.94875C17.1152 2.40771 16.7431 2.7798 16.2842 2.7798H17.6318C18.0908 2.7798 18.4629 2.40771 18.4629 1.94875C18.4629 1.48978 18.0908 1.11769 17.6318 1.11769Z" fill="#DAD0CB"/>
<path d="M11.3679 6.18309V2.88681H12.9797V6.18309H11.3679Z" fill="#F9F6F6"/>
<path d="M9.32129 10.5738V6.66556H0.269531C0.12066 6.66556 0 6.78622 0 6.93509V10.3042C0 10.4531 0.12066 10.5738 0.269531 10.5738H9.32129Z" fill="#EFE7E4"/>
<path d="M15.0264 6.66556H18.9662C20.6358 6.66556 21.9893 8.01905 21.9893 9.68866V15.0659H18.0811V11.0559C18.0811 10.7896 17.8652 10.5738 17.5989 10.5738H15.0264V6.66556Z" fill="#EFE7E4"/>
<path d="M18.9662 6.66556H17.6185C19.2881 6.66556 20.6416 8.01905 20.6416 9.68866V14.3921H21.9893V9.68866C21.9893 8.01905 20.6358 6.66556 18.9662 6.66556V6.66556Z" fill="#DAD0CB"/>
<path d="M17.7495 15.7398H22.3208C22.5098 15.7398 22.6631 15.5865 22.6631 15.3975V14.7344C22.6631 14.5454 22.5098 14.3921 22.3208 14.3921H17.7495C17.5605 14.3921 17.4072 14.5454 17.4072 14.7344V15.3975C17.4072 15.5865 17.5605 15.7398 17.7495 15.7398Z" fill="#8B818E"/>
<path d="M22.3208 14.3921H20.9731C21.1622 14.3921 21.3154 14.5454 21.3154 14.7344V15.3975C21.3154 15.5865 21.1622 15.7398 20.9731 15.7398H22.3208C22.5098 15.7398 22.6631 15.5865 22.6631 15.3975V14.7344C22.6631 14.5454 22.5098 14.3921 22.3208 14.3921Z" fill="#756E78"/>
<path d="M4.15527 6.66556V10.5738C4.15527 10.9459 4.45697 11.2476 4.8291 11.2476C5.20123 11.2476 5.50293 10.9459 5.50293 10.5738V6.66556C5.50293 6.29342 5.20123 5.99173 4.8291 5.99173C4.45697 5.99173 4.15527 6.29342 4.15527 6.66556Z" fill="#8B818E"/>
<path d="M11.076 3.56064H13.2716C13.6438 3.56064 13.9454 3.25895 13.9454 2.88681V1.01074C13.9454 0.638609 13.6438 0.336914 13.2716 0.336914H11.076C10.7039 0.336914 10.4022 0.638609 10.4022 1.01074V2.88681C10.4022 3.25895 10.7039 3.56064 11.076 3.56064V3.56064Z" fill="#8B818E"/>
<path d="M13.2716 0.336914H11.924C12.2961 0.336914 12.5978 0.638609 12.5978 1.01074V2.88681C12.5978 3.25895 12.2961 3.56064 11.924 3.56064H13.2716C13.6438 3.56064 13.9455 3.25895 13.9455 2.88681V1.01074C13.9455 0.638609 13.6438 0.336914 13.2716 0.336914V0.336914Z" fill="#756E78"/>
<path d="M17.9251 20.5539C17.9251 21.7188 18.8698 22.6631 20.0351 22.6631C21.2005 22.6631 22.1452 21.7187 22.1452 20.5539C22.1452 19.5379 20.5402 17.8874 20.1298 17.4821C20.0772 17.4301 19.9931 17.4301 19.9405 17.4821C19.5301 17.8874 17.9251 19.5379 17.9251 20.5539V20.5539Z" fill="#ECF5FF"/>
<path d="M19.9406 17.4819C19.8234 17.5977 19.6085 17.8154 19.3613 18.0908C19.9788 18.779 20.7976 19.8282 20.7976 20.5538C20.7976 21.4831 20.1961 22.2714 19.3613 22.5525C19.573 22.6238 19.7995 22.663 20.0352 22.663C21.2005 22.663 22.1452 21.7187 22.1452 20.5538C22.1452 19.5378 20.5402 17.8874 20.1298 17.4821C20.0772 17.4302 19.9932 17.43 19.9406 17.4819V17.4819Z" fill="#CBE0FD"/>
<path d="M14.4339 11.7301H9.91382C9.16951 11.7301 8.56616 11.1267 8.56616 10.3824V6.85696C8.56616 6.11265 9.16951 5.50931 9.91382 5.50931H14.4339C15.1782 5.50931 15.7815 6.11265 15.7815 6.85696V10.3824C15.7815 11.1267 15.1782 11.7301 14.4339 11.7301Z" fill="#8B818E"/>
<path d="M14.4338 5.50926H13.0862C13.8305 5.50926 14.4338 6.11261 14.4338 6.85692V10.3824C14.4338 11.1267 13.8305 11.73 13.0862 11.73H14.4338C15.1781 11.73 15.7815 11.1267 15.7815 10.3824V6.85692C15.7815 6.11265 15.1781 5.50926 14.4338 5.50926V5.50926Z" fill="#756E78"/>
<path d="M22.3262 14.0555V13.0537C22.3262 12.8676 22.1753 12.7168 21.9893 12.7168C21.8032 12.7168 21.6523 12.8676 21.6523 13.0537V14.0552H18.418V11.0557C18.418 10.6042 18.0506 10.2368 17.599 10.2368H16.1184V7.00242H18.966C20.4473 7.00242 21.6523 8.2075 21.6523 9.68875V11.4814C21.6523 11.6675 21.8032 11.8183 21.9893 11.8183C22.1753 11.8183 22.3262 11.6675 22.3262 11.4814V9.68875C22.3262 7.83595 20.8188 6.32859 18.966 6.32859H16.0331C15.8109 5.65782 15.1782 5.17235 14.4338 5.17235H13.3167V3.89639C13.7749 3.87617 14.1546 3.54946 14.2557 3.11668H17.6318C18.2647 3.11946 18.7998 2.5826 18.7998 1.94871C18.7998 1.30471 18.2758 0.780742 17.6318 0.780742H14.2556C14.1512 0.333904 13.7498 0 13.2716 0H11.076C10.5978 0 10.1964 0.333904 10.092 0.780742H6.71582C6.07654 0.777328 5.54785 1.31158 5.54785 1.94871C5.54785 2.59271 6.07182 3.11668 6.71582 3.11668H10.092C10.193 3.54946 10.5727 3.87617 11.031 3.89639V5.17235H9.91381C9.16945 5.17235 8.53677 5.65782 8.31459 6.32859H5.78189C5.64282 5.93647 5.26835 5.65481 4.82915 5.65481C4.38995 5.65481 4.01548 5.93647 3.8764 6.32859H0.336914C0.150848 6.32859 0 6.47944 0 6.66551C0 6.85157 0.150848 7.00242 0.336914 7.00242H3.81836V10.2368H0.336914C0.150848 10.2368 0 10.3876 0 10.5737C0 10.7598 0.150848 10.9106 0.336914 10.9106H3.87631C4.01539 11.3028 4.38986 11.5845 4.8291 11.5845C5.26835 11.5845 5.64286 11.3028 5.78189 10.9106H8.3145C8.53664 11.5815 9.16936 12.067 9.91376 12.067H10.4834C10.6695 12.067 10.8203 11.9162 10.8203 11.7301C10.8203 11.544 10.6695 11.3932 10.4834 11.3932H9.91381C9.40934 11.3932 8.99008 11.0217 8.91506 10.5379C8.91493 10.5367 8.91466 10.5355 8.91452 10.5343C8.92822 10.4723 8.90087 6.82246 8.91461 6.70428C8.9147 6.70356 8.91484 6.70288 8.91493 6.70216C8.98963 6.21804 9.40911 5.84618 9.91381 5.84618H14.4338C14.9386 5.84618 15.358 6.21804 15.4327 6.70216C15.4328 6.70288 15.433 6.70356 15.433 6.70428C15.4852 7.1526 15.4786 10.1414 15.4331 10.5343C15.433 10.5355 15.4327 10.5367 15.4326 10.5379C15.3576 11.0217 14.9383 11.3932 14.4338 11.3932H12.0557C11.8697 11.3932 11.7188 11.544 11.7188 11.7301C11.7188 11.9162 11.8697 12.067 12.0557 12.067H14.4338C15.1782 12.067 15.811 11.5815 16.0331 10.9106H17.599C17.679 10.9106 17.7441 10.9757 17.7441 11.0557V14.0555C17.3721 14.0584 17.0703 14.3617 17.0703 14.7344V15.3975C17.0703 15.772 17.375 16.0767 17.7495 16.0767H22.3208C22.6953 16.0767 23 15.772 23 15.3975V14.7344C23 14.3617 22.6982 14.0584 22.3262 14.0555ZM14.2824 1.45457H17.6318C17.9043 1.45457 18.126 1.67626 18.126 1.94871C18.126 2.21609 17.9004 2.4442 17.6318 2.44285H14.2824V1.45457ZM10.0653 2.44285H6.71582C6.44337 2.44285 6.22168 2.22116 6.22168 1.94871C6.22168 1.67981 6.44651 1.45336 6.71582 1.45457H10.0653V2.44285ZM5.16602 10.5738C5.16602 10.7596 5.0149 10.9107 4.8291 10.9107C4.6433 10.9107 4.49219 10.7596 4.49219 10.5738V6.66555C4.49219 6.47976 4.6433 6.32864 4.8291 6.32864C5.0149 6.32864 5.16602 6.47976 5.16602 6.66555V10.5738ZM8.22924 10.2368H5.83984V7.00242H8.22924V10.2368ZM12.6429 5.17235H11.7048V3.89756H12.6429V5.17235ZM11.076 3.22373C10.8902 3.22373 10.7391 3.07261 10.7391 2.88681V1.01074C10.7391 0.824945 10.8902 0.673828 11.076 0.673828H13.2716C13.4574 0.673828 13.6085 0.824945 13.6085 1.01074V2.88681C13.6085 3.07261 13.4574 3.22373 13.2716 3.22373H11.076ZM22.3262 15.3975C22.3262 15.4005 22.3237 15.4029 22.3208 15.4029H17.7495C17.7466 15.4029 17.7441 15.4005 17.7441 15.3975V14.7344C17.7441 14.7315 17.7466 14.7291 17.7495 14.7291H22.3208C22.3237 14.7291 22.3262 14.7315 22.3262 14.7344V15.3975ZM20.3666 17.2425C20.1838 17.0618 19.8865 17.0618 19.7038 17.2424C19.0677 17.8707 17.5882 19.4511 17.5882 20.5539C17.5882 21.9026 18.6859 23 20.0352 23C21.3844 23 22.4821 21.9026 22.4821 20.5539C22.4821 19.4511 21.0026 17.8707 20.3666 17.2425ZM20.0352 22.3262C19.0574 22.3262 18.262 21.5311 18.262 20.5539C18.262 20.135 18.7299 19.1862 20.0352 17.8639C21.3406 19.1862 21.8083 20.135 21.8083 20.5539C21.8083 21.5311 21.0129 22.3262 20.0352 22.3262Z" fill="black"/>
</svg>
